# xmcd
#
# Track frame offsets:
#	150
#	8275
#	20856
#	33213
#	41987
#	50786
#	61270
#	71061
#	77717
#	84694
#	94183
#	107680
#	113858
#	126652
#	134215
#	145532
#	155556
#	160807
#	170760
#	178043
#	184029
#
# Disc length: 2551 seconds
#
# Revision: 0
# Processed by: cddbd v1.5.2PL0 Copyright (c) Steve Scherf et al.
# Submitted via: EasyCDDAExtractor 16.0.1.1
#
DISCID=2e09f515
DTITLE=J  E  Mainer - The Legendary J  E  Mainer - Volume 07
DYEAR=1900
DGENRE=Western
TTITLE0=Cookin' In The Kitchen
TTITLE1=Stern Old Bachelor
TTITLE2=Last Night When Willie Came Home
TTITLE3=Carve That Possum Children
TTITLE4=Ain't No Bugs On Me
TTITLE5=Baldheaded End Of The Broom
TTITLE6=Rabbit In The Log
TTITLE7=Everybody Works But Father
TTITLE8=Tell 'Em Lies And Feed 'Em Candy 
TTITLE9=Walking In My Sleep
TTITLE10=Loving Henry Lee
TTITLE11=	Pat and The Cross-Eyed Butcher
TTITLE12=	I've Still Got 99
TTITLE13=Good Old Bowling Green
TTITLE14=Katie Dear
TTITLE15=Old Dan Tucker
TTITLE16=Heating Up The Gravy
TTITLE17=George Collins
TTITLE18=Who Broke The Lock On The Henhouse Door
TTITLE19=Did You Ever See The Devil Uncle Joe
TTITLE20=The Gospel Way
EXTD=
EXTT0=
EXTT1=
EXTT2=
EXTT3=
EXTT4=
EXTT5=
EXTT6=
EXTT7=
EXTT8=
EXTT9=
EXTT10=
EXTT11=
EXTT12=
EXTT13=
EXTT14=
EXTT15=
EXTT16=
EXTT17=
EXTT18=
EXTT19=
EXTT20=
PLAYORDER=
